<svg id="Layer_1" data-name="Layer 1" xmlns="http://www.w3.org/2000/svg" viewBox="0 0 306 110.44"><defs><style>.cls-1{fill:#0193d7;}.cls-2{fill:#4ca950;}.cls-3{fill:#8e9a9a;}.cls-4{fill:#f4b824;}.cls-5{fill:#7ecbef;}</style></defs><title>cleanchoice-energy-logo</title><path class="cls-1" d="M62.39,71.78a18.22,18.22,0,0,1-7.64,1.51A19.93,19.93,0,0,1,47.47,72a16.8,16.8,0,0,1-9.63-9.37,19.93,19.93,0,0,1,0-14.7,16.45,16.45,0,0,1,3.92-5.64,17.34,17.34,0,0,1,5.86-3.58,21,21,0,0,1,14.34,0,13.58,13.58,0,0,1,5.64,3.72L62.05,48a6.9,6.9,0,0,0-3-2.35,10,10,0,0,0-3.84-.77,9.74,9.74,0,0,0-4,.79,9.31,9.31,0,0,0-3.1,2.19,10,10,0,0,0-2,3.29,11.62,11.62,0,0,0-.72,4.16,12,12,0,0,0,.72,4.23,9.83,9.83,0,0,0,2,3.29A9,9,0,0,0,51.15,65a9.69,9.69,0,0,0,3.89.77,9,9,0,0,0,4.28-1,8.3,8.3,0,0,0,2.93-2.5L68,67.67A16.19,16.19,0,0,1,62.39,71.78Z"/><path class="cls-1" d="M70.41,72.38V36.06h8V72.38Z"/><path class="cls-1" d="M106.68,60.71v1a8.4,8.4,0,0,1,0,.91H89.29a4.18,4.18,0,0,0,.6,1.83,5.2,5.2,0,0,0,1.3,1.42A6.37,6.37,0,0,0,95,67.1a6.62,6.62,0,0,0,3.17-.7,6.26,6.26,0,0,0,2.11-1.8l5.48,3.46a11.08,11.08,0,0,1-4.44,3.77,14.72,14.72,0,0,1-6.41,1.32,15.31,15.31,0,0,1-5.09-.84,12.36,12.36,0,0,1-4.2-2.45,11.34,11.34,0,0,1-2.83-4,13.26,13.26,0,0,1-1-5.38,13.46,13.46,0,0,1,1-5.31,12,12,0,0,1,2.74-4,12.21,12.21,0,0,1,4.08-2.57,14,14,0,0,1,5.09-.91,12.89,12.89,0,0,1,4.85.89,10.57,10.57,0,0,1,3.8,2.57,11.89,11.89,0,0,1,2.47,4.08A15.72,15.72,0,0,1,106.68,60.71Zm-7.25-3a4.72,4.72,0,0,0-1.18-3.22,4.44,4.44,0,0,0-3.53-1.35,6,6,0,0,0-2.11.36,5.48,5.48,0,0,0-1.68,1,4.89,4.89,0,0,0-1.15,1.46,4.29,4.29,0,0,0-.48,1.75Z"/><path class="cls-1" d="M109.28,51.72a13.78,13.78,0,0,1,4.92-3,16.86,16.86,0,0,1,5.74-1,15.36,15.36,0,0,1,5.12.75,7.63,7.63,0,0,1,3.39,2.31,9.84,9.84,0,0,1,1.9,3.94,23.31,23.31,0,0,1,.6,5.64V72.38h-7.21V69.84h-.14a5.93,5.93,0,0,1-2.76,2.31,9.82,9.82,0,0,1-4,.82,12.29,12.29,0,0,1-3-.38A8.72,8.72,0,0,1,111,71.32,6.76,6.76,0,0,1,108.94,69a7.11,7.11,0,0,1-.82-3.55,6,6,0,0,1,1.42-4.18,9.3,9.3,0,0,1,3.65-2.45,19.35,19.35,0,0,1,5-1.15,51.11,51.11,0,0,1,5.33-.29V57a2.93,2.93,0,0,0-1.25-2.62,5.39,5.39,0,0,0-3.07-.84,7.65,7.65,0,0,0-3.24.72A10.34,10.34,0,0,0,113.26,56ZM123.74,62h-1q-1.3,0-2.62.12a10.78,10.78,0,0,0-2.35.46,4.35,4.35,0,0,0-1.71,1,2.26,2.26,0,0,0-.67,1.7,2.06,2.06,0,0,0,.31,1.15,2.43,2.43,0,0,0,.79.77,3.34,3.34,0,0,0,1.1.41,6.39,6.39,0,0,0,1.2.12,4.87,4.87,0,0,0,3.67-1.32,4.94,4.94,0,0,0,1.27-3.58Z"/><path class="cls-1" d="M150.83,72.38V59.32a10.62,10.62,0,0,0-.17-1.92,5.33,5.33,0,0,0-.55-1.61,2.87,2.87,0,0,0-1.08-1.1,3.44,3.44,0,0,0-1.75-.41,4,4,0,0,0-1.85.41,3.74,3.74,0,0,0-1.32,1.13,5.11,5.11,0,0,0-.79,1.66,7.12,7.12,0,0,0-.26,1.95v13h-7.93V48.46h7.64v3.31h.1A7.92,7.92,0,0,1,144,50.26,6.8,6.8,0,0,1,145.62,49a10.2,10.2,0,0,1,2-.86,8.06,8.06,0,0,1,2.35-.34,8.86,8.86,0,0,1,4.08.86,7.81,7.81,0,0,1,2.71,2.23A8.81,8.81,0,0,1,158.3,54a14.28,14.28,0,0,1,.46,3.56v14.8Z"/><path class="cls-1" d="M193.11,66.86A14.22,14.22,0,0,1,191,69.31a13.65,13.65,0,0,1-2.84,2,15.84,15.84,0,0,1-3.55,1.39,16.69,16.69,0,0,1-4.25.51,18.49,18.49,0,0,1-7.11-1.35A16.6,16.6,0,0,1,164,62.53a18.9,18.9,0,0,1-1.32-7.16A18.62,18.62,0,0,1,164,48.22a16.88,16.88,0,0,1,9.34-9.37,18.18,18.18,0,0,1,7-1.35A17.49,17.49,0,0,1,187.44,39a14.48,14.48,0,0,1,2.88,1.7,10,10,0,0,1,2.16,2.24L189.6,45a8.68,8.68,0,0,0-1.42-1.63A9.7,9.7,0,0,0,186.09,42a13.21,13.21,0,0,0-2.62-1,11.65,11.65,0,0,0-3.05-.38,14.13,14.13,0,0,0-5.93,1.2A13.36,13.36,0,0,0,170,45a14.11,14.11,0,0,0-2.79,4.72,16.61,16.61,0,0,0-1,5.65,16.27,16.27,0,0,0,1,5.65,14.42,14.42,0,0,0,2.81,4.72A13.32,13.32,0,0,0,174.54,69a14,14,0,0,0,5.89,1.2A13.32,13.32,0,0,0,186,69a10.55,10.55,0,0,0,4.42-3.84Z"/><path class="cls-1" d="M199.4,53.6a6.78,6.78,0,0,1,3-3.12,9.29,9.29,0,0,1,4.52-1.15q4.27,0,6.41,2.55a10.12,10.12,0,0,1,2.14,6.73V72.38h-3.27V59.94a16.62,16.62,0,0,0-.29-3.22,6.78,6.78,0,0,0-1-2.47,4.72,4.72,0,0,0-1.87-1.61,6.71,6.71,0,0,0-3-.58,6.31,6.31,0,0,0-2.52.53,6.18,6.18,0,0,0-2.19,1.61,8,8,0,0,0-1.54,2.74,11.94,11.94,0,0,0-.58,3.91V72.38H196V36.06h3.27V53.6Z"/><path class="cls-1" d="M242.39,61.14a12.26,12.26,0,0,1-.89,4.71A11.34,11.34,0,0,1,239,69.6a11.2,11.2,0,0,1-3.8,2.47,12.9,12.9,0,0,1-4.85.89,12.76,12.76,0,0,1-4.8-.89,11.19,11.19,0,0,1-3.8-2.47,11.32,11.32,0,0,1-2.47-3.75,12.91,12.91,0,0,1,0-9.42,11.32,11.32,0,0,1,2.47-3.75,11.21,11.21,0,0,1,3.8-2.47,12.76,12.76,0,0,1,4.8-.89,12.9,12.9,0,0,1,4.85.89,11.22,11.22,0,0,1,3.8,2.47,11.34,11.34,0,0,1,2.47,3.75A12.27,12.27,0,0,1,242.39,61.14Zm-3.46,0a10.3,10.3,0,0,0-.6-3.53,8.64,8.64,0,0,0-1.71-2.88,8.06,8.06,0,0,0-2.69-1.95,8.49,8.49,0,0,0-3.55-.72,8.33,8.33,0,0,0-3.53.72,8.13,8.13,0,0,0-2.67,1.95,8.64,8.64,0,0,0-1.7,2.88,10.67,10.67,0,0,0,0,7.06,8.65,8.65,0,0,0,1.7,2.88,7.84,7.84,0,0,0,2.67,1.92,8.58,8.58,0,0,0,3.53.7,8.75,8.75,0,0,0,3.55-.7,7.77,7.77,0,0,0,2.69-1.92,8.65,8.65,0,0,0,1.71-2.88A10.3,10.3,0,0,0,238.93,61.14Z"/><path class="cls-1" d="M250.46,41.25a2.13,2.13,0,0,1-.72,1.66,2.26,2.26,0,0,1-3.17,0,2.27,2.27,0,0,1,0-3.32,2.26,2.26,0,0,1,3.17,0A2.13,2.13,0,0,1,250.46,41.25Zm-.67,31.13h-3.27V49.9h3.27Z"/><path class="cls-1" d="M271.75,55a6.2,6.2,0,0,0-2.38-2.14,7,7,0,0,0-3.39-.84,8.75,8.75,0,0,0-3.55.7,8.05,8.05,0,0,0-2.71,1.92A8.44,8.44,0,0,0,258,57.56a10.42,10.42,0,0,0-.6,3.58,10.21,10.21,0,0,0,.6,3.55,8.7,8.7,0,0,0,1.7,2.86,7.8,7.8,0,0,0,2.69,1.92,8.76,8.76,0,0,0,3.56.7,7.17,7.17,0,0,0,6.1-2.93l2.45,1.83A10.71,10.71,0,0,1,271,71.9a11,11,0,0,1-5,1.06,13.16,13.16,0,0,1-4.95-.89,10.93,10.93,0,0,1-3.77-2.47,11.2,11.2,0,0,1-2.43-3.75,13.25,13.25,0,0,1,0-9.42,11.2,11.2,0,0,1,2.43-3.75A10.94,10.94,0,0,1,261,50.21a13.16,13.16,0,0,1,4.95-.89,11.75,11.75,0,0,1,4.59,1,9,9,0,0,1,3.77,2.91Z"/><path class="cls-1" d="M298.07,60.47v.72a7.4,7.4,0,0,1,0,.82H279.38a8.75,8.75,0,0,0,.67,3.17,8,8,0,0,0,1.73,2.59,8.32,8.32,0,0,0,2.59,1.75A8.59,8.59,0,0,0,292,69a8.81,8.81,0,0,0,2.81-2.71l2.45,1.92a12.19,12.19,0,0,1-4.44,3.65A12.44,12.44,0,0,1,287.6,73a12,12,0,0,1-4.64-.89,10.85,10.85,0,0,1-3.68-2.47,11.71,11.71,0,0,1-2.43-3.75,12.24,12.24,0,0,1-.89-4.71,12.56,12.56,0,0,1,.86-4.71,11.4,11.4,0,0,1,2.4-3.75,11,11,0,0,1,3.6-2.47,11.19,11.19,0,0,1,4.47-.89,11.47,11.47,0,0,1,4.66.89,9.61,9.61,0,0,1,3.36,2.4,10.32,10.32,0,0,1,2,3.53A13.17,13.17,0,0,1,298.07,60.47Zm-3.31-1.06a8.11,8.11,0,0,0-2-5.26,6.93,6.93,0,0,0-5.4-2.09,7.56,7.56,0,0,0-3,.6,8,8,0,0,0-2.45,1.63,8.14,8.14,0,0,0-1.68,2.35,7.6,7.6,0,0,0-.72,2.76Z"/><path class="cls-1" d="M82,28.89a3.49,3.49,0,0,1-3.45-3.32,3.37,3.37,0,0,1,.93-2.46A3.32,3.32,0,0,1,82,22a3.45,3.45,0,0,1,2.54,5.77A3.4,3.4,0,0,1,82,28.89Z"/><path class="cls-2" d="M26.66,55.4a3.91,3.91,0,0,1-.54,0,3.74,3.74,0,0,1-2.53-1.44,3.85,3.85,0,0,1,3.55-6.21,3.86,3.86,0,0,1-.48,7.69Z"/><path class="cls-3" d="M29.87,45.59A3.85,3.85,0,0,1,28,45.11a3.74,3.74,0,0,1-1.84-2.25,3.89,3.89,0,0,1,3.7-5,3.87,3.87,0,0,1,0,7.73Z"/><path class="cls-4" d="M36.41,37.57A3.8,3.8,0,0,1,33.5,36.2a3.74,3.74,0,0,1-.91-2.76,3.91,3.91,0,0,1,3.88-3.58,3.84,3.84,0,0,1,2.45,6.8A3.91,3.91,0,0,1,36.41,37.57Z"/><path class="cls-1" d="M45.45,32.46A3.86,3.86,0,0,1,42,27a3.93,3.93,0,0,1,3.52-2.2,3.84,3.84,0,0,1,1.21,7.48A3.94,3.94,0,0,1,45.45,32.46Z"/><path class="cls-3" d="M55.57,31a3.84,3.84,0,0,1,.15-7.68h.17a3.86,3.86,0,0,1,2.68,1.23A3.85,3.85,0,0,1,55.74,31Z"/><path class="cls-1" d="M65.88,33.28A3.91,3.91,0,0,1,64.31,33a3.84,3.84,0,0,1,1.5-7.37,3.9,3.9,0,0,1,1.57.33A3.85,3.85,0,0,1,69.43,28a3.85,3.85,0,0,1-3.55,5.26Z"/><path class="cls-3" d="M68.56,83.72a3.84,3.84,0,0,1-1.88-7.19A3.93,3.93,0,0,1,68.62,76a3.87,3.87,0,0,1,3.7,4.81,3.92,3.92,0,0,1-3.77,2.89Z"/><path class="cls-4" d="M58.79,87.11a3.84,3.84,0,0,1-.55-7.64,4,4,0,0,1,.59,0,3.8,3.8,0,0,1,3.79,3.26,3.74,3.74,0,0,1-.67,2.83,3.86,3.86,0,0,1-2.58,1.55A3.92,3.92,0,0,1,58.79,87.11Z"/><path class="cls-5" d="M48.48,86.75a4,4,0,0,1-.87-.1,3.84,3.84,0,0,1,.81-7.59,4,4,0,0,1,.88.1,3.84,3.84,0,0,1-.82,7.59Z"/><path class="cls-3" d="M38.94,82.66A3.9,3.9,0,0,1,36.77,82a3.84,3.84,0,1,1,5.92-4,3.87,3.87,0,0,1-3.75,4.62Z"/><path class="cls-3" d="M31.51,75.43a3.87,3.87,0,0,1,0-7.73,3.87,3.87,0,0,1,2.23,7A3.74,3.74,0,0,1,31.51,75.43Z"/><path class="cls-1" d="M27.16,66a3.88,3.88,0,0,1-3.28-5.86,3.79,3.79,0,0,1,2.36-1.75,4,4,0,0,1,1-.12,3.86,3.86,0,0,1,0,7.73Z"/><path class="cls-5" d="M3.51,46.26a3.06,3.06,0,0,1-.7-.08A2.91,2.91,0,0,1,1,44.88a3,3,0,1,1,5.44-.94A3,3,0,0,1,3.51,46.26Z"/><path class="cls-5" d="M7.14,35.87a3,3,0,0,1-1.29-.29,2.91,2.91,0,0,1-1.54-1.66,3,3,0,0,1,2.82-4.07,3,3,0,0,1,1.27.29,3,3,0,0,1-1.27,5.74Z"/><path class="cls-5" d="M20.33,18.54a3,3,0,0,1-2.25-1,2.91,2.91,0,0,1-.74-2.14,3,3,0,0,1,3-2.83,3,3,0,0,1,1.93,5.27A3,3,0,0,1,20.33,18.54Z"/><path class="cls-4" d="M29.41,12.24a3,3,0,0,1-2.87-3.8A3,3,0,0,1,28,6.61a3,3,0,0,1,1.45-.37,3,3,0,0,1,1.42,5.63A3.07,3.07,0,0,1,29.41,12.24Z"/><path class="cls-5" d="M50.32,6a3,3,0,0,1-3-2.74A2.91,2.91,0,0,1,48,1.08,3,3,0,0,1,50.09,0h.25a3,3,0,0,1,3,2.74A3,3,0,0,1,50.57,6Z"/><path class="cls-5" d="M72,8.76a3.08,3.08,0,0,1-1-.18,3,3,0,0,1-1.72-1.51A3,3,0,0,1,72,2.77a3.07,3.07,0,0,1,1,.17,3,3,0,0,1,1.72,1.52A3,3,0,0,1,72,8.76Z"/><path class="cls-5" d="M96.88,38.86a3.06,3.06,0,0,1-3-2.91,2.94,2.94,0,0,1,.81-2.15,2.9,2.9,0,0,1,2.17-1,3,3,0,0,1,3,2.92,3,3,0,0,1-3,3.1Z"/><path class="cls-5" d="M109,29.79a3.06,3.06,0,0,1-3-2.91,2.94,2.94,0,0,1,.81-2.15,2.9,2.9,0,0,1,2.17-1,3,3,0,0,1,3,2.92,3,3,0,0,1-3,3.1Z"/><path class="cls-5" d="M96.4,90.16A3,3,0,0,1,94,85.34a3,3,0,0,1,2.39-1.2,3,3,0,0,1,1.8.62,2.91,2.91,0,0,1,1.16,1.94,3,3,0,0,1-3,3.46Z"/><path class="cls-5" d="M79.85,104.41a3,3,0,0,1-1.42-5.62,3.06,3.06,0,0,1,1.47-.38,3,3,0,0,1,2.87,3.8A3,3,0,0,1,81.31,104,3,3,0,0,1,79.85,104.41Z"/><path class="cls-5" d="M117,86.85a3,3,0,0,1-1.42-5.62,3.06,3.06,0,0,1,1.47-.38,3,3,0,0,1,2.87,3.8,3,3,0,0,1-1.46,1.83A3,3,0,0,1,117,86.85Z"/><path class="cls-5" d="M47.94,110.44l-.39,0a3,3,0,0,1-2-1.13,3,3,0,0,1,2.35-4.84l.4,0a3,3,0,0,1,2,1.12,3,3,0,0,1-2.36,4.85Z"/><path class="cls-5" d="M18.63,96.58a3,3,0,0,1-3-2.92,2.94,2.94,0,0,1,.81-2.14,3,3,0,0,1,5.2,2,3,3,0,0,1-.81,2.15A2.9,2.9,0,0,1,18.63,96.58Z"/><path class="cls-2" d="M3,68.13a3,3,0,0,1-.54-6A3.11,3.11,0,0,1,3,62.12a3,3,0,0,1,.56,6A2.92,2.92,0,0,1,3,68.13Z"/><path class="cls-1" d="M14,56.31a3.33,3.33,0,0,1-2.34-1.1,3.45,3.45,0,0,1,2.52-5.76h.21a3.39,3.39,0,0,1,3.22,3.63,3.38,3.38,0,0,1-3.39,3.23Z"/><path class="cls-1" d="M16.1,46.34A3.46,3.46,0,0,1,15,46.17a3.33,3.33,0,0,1-2-1.65,3.42,3.42,0,1,1,3.05,1.82Z"/><path class="cls-3" d="M20.38,37.16a3.4,3.4,0,0,1-1.82-.54A3.33,3.33,0,0,1,17,34.53a3.47,3.47,0,0,1,3.35-4.24,3.44,3.44,0,0,1,0,6.88Z"/><path class="cls-2" d="M26.83,29.31a3.45,3.45,0,0,1-3.41-3.48,3.48,3.48,0,0,1,3.46-3.39,3.36,3.36,0,0,1,2.47,1.07,3.4,3.4,0,0,1-.14,4.85A3.45,3.45,0,0,1,26.83,29.31Z"/><path class="cls-1" d="M35,23.32A3.44,3.44,0,0,1,31.72,19,3.44,3.44,0,0,1,38,18.22a3.4,3.4,0,0,1-1.34,4.66A3.5,3.5,0,0,1,35,23.32Z"/><path class="cls-3" d="M44.47,19.55a3.43,3.43,0,0,1-3-5.12,3.44,3.44,0,0,1,2.14-1.61,3.51,3.51,0,0,1,.87-.11,3.42,3.42,0,0,1,.83,6.73A3.56,3.56,0,0,1,44.47,19.55Z"/><path class="cls-1" d="M54.61,18.27a3.38,3.38,0,0,1-3.43-3.4,3.32,3.32,0,0,1,1-2.4A3.45,3.45,0,0,1,58,14.84,3.4,3.4,0,0,1,54.61,18.27Z"/><path class="cls-5" d="M64.69,19.54a3.53,3.53,0,0,1-.88-.11,3.42,3.42,0,0,1,.82-6.73,3.49,3.49,0,0,1,.87.11A3.42,3.42,0,0,1,68,17,3.37,3.37,0,0,1,64.69,19.54Z"/><path class="cls-2" d="M74.15,23.29a3.49,3.49,0,0,1-1.67-.44,3.43,3.43,0,0,1-1.65-2,3.44,3.44,0,0,1,3.27-4.4,3.49,3.49,0,0,1,1.68.43,3.42,3.42,0,0,1-1.62,6.42Z"/><path class="cls-1" d="M85.76,84.62a3.44,3.44,0,0,1,0-6.87,3.47,3.47,0,0,1,3.4,3.07,3.47,3.47,0,0,1-3.43,3.81Z"/><path class="cls-4" d="M78.32,91.57a3.36,3.36,0,0,1-2.75-1.4,3.39,3.39,0,0,1,.77-4.79,3.45,3.45,0,0,1,2-.67,3.44,3.44,0,0,1,3.37,3.92,3.48,3.48,0,0,1-3.42,2.94Z"/><path class="cls-1" d="M69.43,96.44a3.42,3.42,0,0,1-1.23-6.6,3.49,3.49,0,0,1,1.29-.25,3.37,3.37,0,0,1,3.15,2.16,3.33,3.33,0,0,1,0,2.59,3.49,3.49,0,0,1-3.2,2.11Z"/><path class="cls-5" d="M59.56,98.95a3.42,3.42,0,0,1-.4-6.81l.44,0a3.37,3.37,0,0,1,3.39,3,3.33,3.33,0,0,1-.66,2.5A3.44,3.44,0,0,1,60,98.92Z"/><path class="cls-3" d="M49.48,98.92l-.45,0a3.43,3.43,0,0,1-2.28-1.29,3.42,3.42,0,0,1,2.69-5.52,3.54,3.54,0,0,1,.46,0,3.44,3.44,0,0,1,2.28,1.28,3.43,3.43,0,0,1-2.7,5.53Z"/><path class="cls-1" d="M39.62,96.37a3.49,3.49,0,0,1-1.3-.25,3.42,3.42,0,0,1,1.23-6.6,3.5,3.5,0,0,1,1.3.25,3.43,3.43,0,0,1,1.89,1.81,3.43,3.43,0,0,1-3.13,4.79Z"/><path class="cls-2" d="M30.76,91.46a3.46,3.46,0,0,1-2.05-.67,3.42,3.42,0,1,1,4-5.51A3.38,3.38,0,0,1,33.5,90,3.32,3.32,0,0,1,30.76,91.46Z"/><path class="cls-1" d="M23.35,84.49A3.44,3.44,0,1,1,26,78.88a3.43,3.43,0,0,1-2.62,5.61Z"/><path class="cls-1" d="M17.9,75.9a3.44,3.44,0,0,1,0-6.88A3.39,3.39,0,0,1,21,71a3.43,3.43,0,0,1,.14,2.61,3.37,3.37,0,0,1-1.77,1.94A3.32,3.32,0,0,1,17.9,75.9Z"/><path class="cls-3" d="M14.78,66.19A3.45,3.45,0,0,1,12,60.81a3.36,3.36,0,0,1,2.19-1.43,3.56,3.56,0,0,1,.65-.06,3.43,3.43,0,0,1,0,6.87Z"/><path class="cls-3" d="M197.45,100.25h9v1.52H195.73V84.92h10.45v1.52h-8.74v5.79h8.17v1.52h-8.17Z"/><path class="cls-3" d="M224.16,99.27h0V84.92h1.71v16.85h-2.14L214,87.27h0v14.5h-1.71V84.92h2.14Z"/><path class="cls-3" d="M234.49,100.25h9v1.52H232.77V84.92h10.45v1.52h-8.74v5.79h8.17v1.52h-8.17Z"/><path class="cls-3" d="M251,101.77h-1.71V84.92h5a10.57,10.57,0,0,1,2.3.24,5.19,5.19,0,0,1,1.83.77,3.64,3.64,0,0,1,1.2,1.39,4.65,4.65,0,0,1,.43,2.09,4.13,4.13,0,0,1-1.24,3,4.32,4.32,0,0,1-1.36.89,5.88,5.88,0,0,1-1.71.43l4.93,8h-2.09l-4.67-7.88H251Zm0-9.35h3a5.71,5.71,0,0,0,3.19-.75,2.53,2.53,0,0,0,1.12-2.25,2.93,2.93,0,0,0-.31-1.4,2.54,2.54,0,0,0-.86-.93,3.92,3.92,0,0,0-1.33-.52,8.42,8.42,0,0,0-1.74-.17h-3Z"/><path class="cls-3" d="M278.67,88a6.16,6.16,0,0,0-2.09-1.44,7.12,7.12,0,0,0-2.79-.51,6.93,6.93,0,0,0-2.92.59,6.62,6.62,0,0,0-2.2,1.6,7.16,7.16,0,0,0-1.39,2.34,8.32,8.32,0,0,0,0,5.61,7,7,0,0,0,1.39,2.33,6.67,6.67,0,0,0,2.2,1.59,6.93,6.93,0,0,0,2.92.6,10.41,10.41,0,0,0,2.62-.31,6.65,6.65,0,0,0,1.93-.79V94.46h-3.93V92.94h5.64v7.61a10.92,10.92,0,0,1-3,1.24,13.33,13.33,0,0,1-3.31.41,9.19,9.19,0,0,1-3.52-.67,8.23,8.23,0,0,1-4.61-4.64,9.35,9.35,0,0,1-.66-3.55,9.24,9.24,0,0,1,.67-3.55,8.38,8.38,0,0,1,4.63-4.64,9,9,0,0,1,3.49-.67,9.37,9.37,0,0,1,3.52.61,7.57,7.57,0,0,1,2.57,1.68Z"/><path class="cls-3" d="M291.46,101.77h-1.71V94.51l-6.31-9.59h2.14l5.07,8.17,5.12-8.17h2l-6.31,9.59Z"/><path class="cls-3" d="M300.37,87.72a2.72,2.72,0,0,1,.22-1.09,2.8,2.8,0,0,1,.61-.89,2.9,2.9,0,0,1,.89-.6,2.79,2.79,0,0,1,2.19,0,2.92,2.92,0,0,1,.89.6,2.8,2.8,0,0,1,.6.89,2.72,2.72,0,0,1,.22,1.09,2.68,2.68,0,0,1-.22,1.09,2.8,2.8,0,0,1-1.5,1.47,2.88,2.88,0,0,1-2.19,0,2.81,2.81,0,0,1-1.5-1.47A2.68,2.68,0,0,1,300.37,87.72Zm.44,0a2.3,2.3,0,0,0,.19.91,2.43,2.43,0,0,0,.5.76,2.35,2.35,0,0,0,.75.51,2.42,2.42,0,0,0,1.85,0,2.35,2.35,0,0,0,.75-.51,2.44,2.44,0,0,0,.51-.76,2.29,2.29,0,0,0,.18-.91,2.33,2.33,0,0,0-.18-.93,2.36,2.36,0,0,0-1.26-1.26,2.42,2.42,0,0,0-1.85,0A2.35,2.35,0,0,0,301,86.79,2.33,2.33,0,0,0,300.82,87.72Zm1.27-1.59h1.11a1.91,1.91,0,0,1,.43,0,1.15,1.15,0,0,1,.38.16.83.83,0,0,1,.27.28.86.86,0,0,1,.1.43.81.81,0,0,1-.2.56,1,1,0,0,1-.53.29l.85,1.38h-.69L303.06,88h-.41v1.32h-.57Zm1,1.38a1.23,1.23,0,0,0,.47-.09.37.37,0,0,0,.22-.38.34.34,0,0,0-.2-.35,1.1,1.1,0,0,0-.43-.09h-.52v.9Z"/></svg>