<?xml version="1.0" encoding="utf-8"?>
<!-- Generator: Adobe Illustrator 23.0.3, SVG Export Plug-In . SVG Version: 6.00 Build 0)  -->
<svg version="1.1" id="Layer_1" xmlns="http://www.w3.org/2000/svg" xmlns:xlink="http://www.w3.org/1999/xlink" x="0px" y="0px"
	 viewBox="0 0 2000 2000" style="enable-background:new 0 0 2000 2000;" xml:space="preserve">
<style type="text/css">
	.st0{fill:#231F20;}
	.st1{fill:none;stroke:#231F20;stroke-width:15;stroke-miterlimit:10;}
	.st2{fill:#231F20;stroke:#231F20;stroke-width:10;stroke-miterlimit:10;}
	.st3{fill:none;}
	.st4{fill:none;stroke:#231F20;stroke-width:15.1443;stroke-miterlimit:10;}
	.st5{fill:none;stroke:#231F20;stroke-width:6;stroke-miterlimit:10;}
	.st6{fill:none;stroke:#231F20;stroke-width:8;stroke-miterlimit:10;}
	.st7{fill:none;stroke:#231F20;stroke-width:4;stroke-miterlimit:10;}
	.st8{clip-path:url(#XMLID_4_);}
	.st9{clip-path:url(#XMLID_5_);}
	.st10{fill:none;stroke:#231F20;stroke-width:15.144;stroke-miterlimit:10;}
	.st11{fill:none;stroke:#231F20;stroke-width:15.144;stroke-miterlimit:10;stroke-dasharray:11.5177,9.5981;}
	.st12{fill:none;stroke:#1F1F1F;stroke-width:10;stroke-miterlimit:10;}
	.st13{fill:#1F1F1F;}
	.st14{fill:#FFFFFF;}
	.st15{fill:none;stroke:#231F20;stroke-width:10.5373;stroke-miterlimit:10;}
</style>
<g>
	<g>
		<g>
			<path d="M458.4,1274.5l11.1-8c4,7,11.5,11,20.1,11c10.1,0,17.7-4.8,17.7-11.7c0-8.3-11.8-13.3-22.3-17.8
				c-10.5-4.7-22.2-10.1-22.2-24.2c0-14.7,12.8-25,28.9-25c12.8,0,22.4,6.2,26.1,16l-10.5,7.2c-2.8-6.1-9-9.5-15.5-9.5
				c-8.2,0-14.8,5.1-14.8,11.5c0,7,8.3,9.5,19.2,14.2c14.2,6.2,25.2,13.1,25.2,27.2c0,15.9-13.8,26.2-32,26.2
				C474.7,1291.8,463.5,1284.9,458.4,1274.5z"/>
			<path d="M586.4,1245.5c0-25.3,21.1-46.5,46.4-46.5c11.6,0.2,22.4,5.1,31.2,13.7l-8.2,11.1c-6.3-6.3-14.5-10.5-23.3-10.5
				c-16.3,0-31.8,14.3-31.8,32.3c0,18.1,15.8,32.1,31.9,32.1c9.2,0,17.1-4.6,23.3-10.7l8.1,11.4c-7.7,7.6-17.6,13.5-31,13.5
				C607.5,1291.8,586.4,1270.8,586.4,1245.5z"/>
			<path d="M788.8,1276.7h-42.5l-6.1,13.7h-15.3l42.2-91.7h0.8l42.2,91.7h-15.3L788.8,1276.7z M783.3,1264.6l-15.8-35.1l-15.8,35.1
				H783.3z"/>
			<path d="M949.1,1245.5c0,27.6-17.8,44.8-46.3,44.8h-25.6v-89.8h25.6C931.3,1200.4,949.1,1217.7,949.1,1245.5z M934.8,1245.5
				c0-19.1-12.4-31-32.1-31h-11.5v61.8h11.6C922.5,1276.3,934.8,1264.4,934.8,1245.5z"/>
			<path d="M1067.4,1276.7h-42.5l-6.1,13.7h-15.3l42.2-91.7h0.8l42.2,91.7h-15.3L1067.4,1276.7z M1061.9,1264.6l-15.8-35.1
				l-15.8,35.1H1061.9z"/>
			<path d="M1227.7,1245.5c0,27.6-17.8,44.8-46.3,44.8h-25.6v-89.8h25.6C1209.9,1200.4,1227.7,1217.7,1227.7,1245.5z M1213.4,1245.5
				c0-19.1-12.4-31-32.1-31h-11.5v61.8h11.6C1201.1,1276.3,1213.4,1264.4,1213.4,1245.5z"/>
			<path d="M1293.4,1245.5c0-25.6,20.8-46.6,46.4-46.6c25.5,0,46.5,21,46.5,46.6c0,25.4-21,46.3-46.5,46.3
				C1314.3,1291.8,1293.4,1270.9,1293.4,1245.5z M1372,1245.4c0-17.8-14.5-32.3-32.3-32.3s-32.2,14.5-32.2,32.3
				c0,17.7,14.4,32.1,32.2,32.1S1372,1263.1,1372,1245.4z"/>
			<path d="M1541.6,1248.3c0,26.7-19.4,43.5-42.7,43.5c-26.1,0-46.9-20.8-46.9-46.3c0-25.5,20.8-46.5,46.4-46.5
				c11.3,0.1,24.2,5.5,32.7,13.8l-7.9,11.7c-7-6.9-16.5-11.3-25-11.3c-16.4,0-31.9,13.7-31.9,32.3c0,17.6,14,32.1,33.2,32.1
				c15.4,0,27-9.4,27-23.1v-0.3h-27.8v-12.9h42.5C1541.4,1243.3,1541.6,1245.8,1541.6,1248.3z"/>
		</g>
		<g>
			<polygon class="st0" points="957.6,808.1 928.8,804.2 904.6,751.5 921.1,725.9 			"/>
			<path class="st0" d="M1112.9,905.9l-53.3-77.8l-134.8-18.5l-46.6-101.5l-53.3,127.4l13.3,31.8l-0.2,0.3
				c-50.4,80.2-66.8,102.3-102.6,186.5h123.1l90.9,108.6l62.9-100.7l-45.2-12.6c0,0,161.4,1.5,209.6-8.9
				c48.1-10.4,88.1-96.3,88.1-96.3L1112.9,905.9z M881.8,761.5l-25.9,67.4l9.6,13.3l-16.3,16.3l-12.6-23l42.2-100.7l34.8,77
				L881.8,761.5z M1005.5,897l-11.1-22.2l-11.9-10.4l46.7,5.9l25.9,34.1L1005.5,897z"/>
		</g>
	</g>
</g>
</svg>
